<?xml version="1.0" encoding="utf-8"?>
<!-- Generator: Adobe Illustrator 17.0.0, SVG Export Plug-In . SVG Version: 6.00 Build 0)  -->
<!DOCTYPE svg PUBLIC "-//W3C//DTD SVG 1.1//EN" "http://www.w3.org/Graphics/SVG/1.1/DTD/svg11.dtd">
<svg version="1.1" id="Capa_1" xmlns="http://www.w3.org/2000/svg" xmlns:xlink="http://www.w3.org/1999/xlink" x="0px" y="0px"
	 width="410.5px" height="167px" viewBox="0 0 410.5 167" enable-background="new 0 0 410.5 167" xml:space="preserve">
<g>
	<g id="XMLID_24_">
		<g id="XMLID_225_">
			<path id="XMLID_36_" fill="#D6D6D6" d="M113.211,143.873c1.107,9.961-6.072,18.036-16.036,18.036
				c-9.963,0-18.938-8.075-20.046-18.036c-1.107-9.961,6.072-18.036,16.036-18.036C103.128,125.837,112.103,133.912,113.211,143.873
				z"/>
			<path id="XMLID_5_" fill="#D6D6D6" d="M113.211,143.873c1.107,9.961-6.072,18.036-16.036,18.036
				c-9.963,0-18.938-8.075-20.046-18.036c-1.107-9.961,6.072-18.036,16.036-18.036C103.128,125.837,112.103,133.912,113.211,143.873
				z"/>
			<path id="XMLID_226_" fill="#D6D6D6" d="M292.331,98.258h-65.583c-3.548,0-6.409-2.861-6.409-6.371
				c0-3.548,2.861-6.409,6.409-6.409h28.385l-0.992-8.927h18.275c3.128,0,5.646-2.518,5.646-5.646s-2.518-5.646-5.646-5.646
				l-73.48-0.458c-3.51,0-6.371-2.861-6.371-6.371v-0.382c0-3.51,2.861-6.371,6.371-6.371h52.458l-0.839-7.44h6.677
				c3.128,0,5.646-2.518,5.646-5.646s-2.518-5.646-5.646-5.646h-66.498c-3.51,0-6.371-2.861-6.371-6.409v-0.267
				c0-3.548,2.861-6.409,6.371-6.409h57.113l-0.839-7.325c-0.458-4.12-4.12-7.44-8.241-7.44H127.059
				c-4.082,0-7.058,3.319-6.562,7.44l11.674,105.298h-5.15l-10.874-97.939h-10.568l-3.815,4.616l-21.25-0.267
				c-16.062-0.191-30.292,7.745-37.77,21.06L32.061,64.265c-4.464,8.813-6.181,18.961-4.922,29.339l3.167,26.325
				c-3.777,1.755-5.418,6.142-3.891,10.339l2.289,6.333c0.992,2.747,3.701,4.693,6.524,4.693h29.415c2.404,0,4.426-1.373,5.227-3.51
				l2.632-6.867c3.014-7.897,10.492-12.895,19.305-12.895c9.691,0,19.038,6.066,23.387,15.184l1.946,4.006
				c1.145,2.442,3.663,4.082,6.295,4.082h79.508c-0.076-0.763-0.114-1.526-0.114-2.289c0-10.301,7.821-18.313,18.427-18.313h3.434
				c11.407,0,21.632,9.233,22.929,20.602h6.295c4.12,0,7.058-3.319,6.6-7.401l-2.709-24.341h34.527c3.128,0,5.646-2.518,5.646-5.646
				S295.46,98.258,292.331,98.258z M104.625,66.248L52.396,77.77c-3.93,0.877-7.516-3.472-5.837-7.02l10.034-20.754
				c2.861-5.914,8.699-9.652,15.528-9.996l27.774-1.412c3.586-0.191,6.905,2.671,7.325,6.295l1.679,15.184
				C109.242,63.044,107.449,65.6,104.625,66.248z M175.13,49.004h-7.363c-3.243,0-5.837-2.632-5.837-5.875
				c0-3.205,2.594-5.837,5.837-5.837h7.363c3.243,0,5.875,2.632,5.875,5.837C181.005,46.371,178.372,49.004,175.13,49.004z
				 M201.645,84.943h-7.401c-3.205,0-5.837-2.632-5.837-5.875s2.632-5.837,5.837-5.837h7.401c3.205,0,5.837,2.594,5.837,5.837
				C207.482,82.31,204.85,84.943,201.645,84.943z"/>
		</g>
	</g>
	<g id="XMLID_2_">
		<g id="XMLID_13_">
			<path id="XMLID_34_" fill="#D6D6D6" d="M306.595,143.873c1.108,9.961-6.072,18.036-16.035,18.036s-18.938-8.075-20.046-18.036
				s6.072-18.036,16.035-18.036C296.513,125.837,305.488,133.912,306.595,143.873z"/>
			<path id="XMLID_14_" fill="#D6D6D6" d="M355.249,98.258h-65.583c-3.548,0-6.409-2.861-6.409-6.371
				c0-3.548,2.861-6.409,6.409-6.409h28.385l-0.992-8.927h18.275c3.128,0,5.646-2.518,5.646-5.646s-2.518-5.646-5.646-5.646
				l-73.48-0.458c-3.51,0-6.371-2.861-6.371-6.371v-0.382c0-3.51,2.861-6.371,6.371-6.371h52.458l-0.839-7.44h6.677
				c3.128,0,5.646-2.518,5.646-5.646s-2.518-5.646-5.646-5.646h-66.498c-3.51,0-6.371-2.861-6.371-6.409v-0.267
				c0-3.548,2.861-6.409,6.371-6.409h57.113l-0.839-7.325c-0.458-4.12-4.12-7.44-8.241-7.44H189.976
				c-4.082,0-7.058,3.319-6.562,7.44c0,0,0.305,128.762,2.938,128.762h79.508c-0.076-0.763-0.114-1.526-0.114-2.289
				c0-10.301,7.821-18.313,18.427-18.313h3.434c11.407,0,21.632,9.233,22.929,20.602h6.295c4.12,0,7.058-3.319,6.6-7.401
				l-2.709-24.341h34.527c3.128,0,5.646-2.518,5.646-5.646S358.377,98.258,355.249,98.258z M238.047,49.004h-7.363
				c-3.243,0-5.837-2.632-5.837-5.875c0-3.205,2.594-5.837,5.837-5.837h7.363c3.243,0,5.875,2.632,5.875,5.837
				C243.923,46.371,241.29,49.004,238.047,49.004z M264.563,84.943h-7.401c-3.205,0-5.837-2.632-5.837-5.875
				s2.632-5.837,5.837-5.837h7.401c3.205,0,5.837,2.594,5.837,5.837C270.4,82.31,267.767,84.943,264.563,84.943z"/>
		</g>
		<path id="XMLID_12_" fill="#D6D6D6" d="M333.88,29.93h-7.374c-3.231,0-5.851-2.619-5.851-5.851l0,0
			c0-3.231,2.619-5.851,5.851-5.851h7.374c3.231,0,5.851,2.619,5.851,5.851l0,0C339.731,27.311,337.112,29.93,333.88,29.93z"/>
		<path id="XMLID_11_" fill="#D6D6D6" d="M346.5,57.71h-7.374c-3.231,0-5.851-2.619-5.851-5.851l0,0
			c0-3.231,2.619-5.851,5.851-5.851h7.374c3.231,0,5.851,2.619,5.851,5.851l0,0C352.351,55.09,349.732,57.71,346.5,57.71z"/>
		<path id="XMLID_10_" fill="#D6D6D6" d="M336.941,94.011h-7.374c-3.231,0-5.851-2.619-5.851-5.851l0,0
			c0-3.231,2.619-5.851,5.851-5.851h7.374c3.231,0,5.851,2.619,5.851,5.851l0,0C342.792,91.391,340.173,94.011,336.941,94.011z"/>
		<path id="XMLID_9_" fill="#D6D6D6" d="M369.264,94.011h-7.375c-3.231,0-5.851-2.619-5.851-5.851l0,0
			c0-3.231,2.619-5.851,5.851-5.851h7.375c3.231,0,5.851,2.619,5.851,5.851l0,0C375.114,91.391,372.495,94.011,369.264,94.011z"/>
		<path id="XMLID_8_" fill="#D6D6D6" d="M378.801,71.221h-7.375c-3.231,0-5.851-2.619-5.851-5.851l0,0
			c0-3.231,2.619-5.851,5.851-5.851h7.375c3.231,0,5.851,2.619,5.851,5.851l0,0C384.652,68.602,382.032,71.221,378.801,71.221z"/>
		<path id="XMLID_7_" fill="#D6D6D6" d="M343.418,125.837h-7.374c-3.231,0-5.851-2.619-5.851-5.851l0,0
			c0-3.231,2.619-5.851,5.851-5.851h7.374c3.231,0,5.851,2.619,5.851,5.851l0,0C349.269,123.218,346.65,125.837,343.418,125.837z"/>
	</g>
	<rect x="181.687" y="107.793" fill="#D6D6D6" width="75.854" height="33.5"/>
</g>
</svg>
