<?xml version="1.0" encoding="utf-8"?>
<!-- Generator: Adobe Illustrator 17.0.0, SVG Export Plug-In . SVG Version: 6.00 Build 0)  -->
<!DOCTYPE svg PUBLIC "-//W3C//DTD SVG 1.1//EN" "http://www.w3.org/Graphics/SVG/1.1/DTD/svg11.dtd">
<svg version="1.1" id="Capa_1" xmlns="http://www.w3.org/2000/svg" xmlns:xlink="http://www.w3.org/1999/xlink" x="0px" y="0px"
	 width="80px" height="40px" viewBox="0 0 80 40" enable-background="new 0 0 80 40" xml:space="preserve">
<g>
	<path fill="#37508F" d="M80,33.164C80,36.94,76.94,40,73.165,40H46.836C43.06,40,40,36.94,40,33.164V6.836
		C40,3.06,43.06,0,46.836,0h26.329C76.94,0,80,3.06,80,6.836V33.164z"/>
	<path fill="#FFFFFF" d="M67.446,40V24.643h5.155l0.772-5.985h-5.927v-3.822c0-1.732,0.481-2.913,2.966-2.913l3.169-0.001V6.568
		c-0.549-0.073-2.429-0.236-4.619-0.236c-4.569,0-7.697,2.789-7.697,7.911v4.414h-5.168v5.985h5.168V40H67.446L67.446,40z"/>
</g>
<g>
	<path fill="#333333" d="M27.446,36.833V21.476h5.155l0.772-5.985h-5.927V11.67c0-1.733,0.481-2.913,2.966-2.913l3.169-0.001V3.401
		c-0.549-0.072-2.429-0.235-4.619-0.235c-4.569,0-7.697,2.789-7.697,7.911v4.414h-5.168v5.985h5.168v15.357H27.446L27.446,36.833z"
		/>
</g>
</svg>
