<?xml version="1.0" encoding="utf-8"?>
<!-- Generator: Adobe Illustrator 17.0.0, SVG Export Plug-In . SVG Version: 6.00 Build 0)  -->
<!DOCTYPE svg PUBLIC "-//W3C//DTD SVG 1.1//EN" "http://www.w3.org/Graphics/SVG/1.1/DTD/svg11.dtd">
<svg version="1.1" id="Capa_1" xmlns="http://www.w3.org/2000/svg" xmlns:xlink="http://www.w3.org/1999/xlink" x="0px" y="0px"
	 width="80px" height="40px" viewBox="0 0 80 40" enable-background="new 0 0 80 40" xml:space="preserve">
<image overflow="visible" width="2442" height="2171" xlink:href="C2C2AB327929E143.png"  transform="matrix(0.24 0 0 0.24 147 -276.5)">
</image>
<g>
	<g>
		<path fill="#20B2E3" d="M80,33.097c0,3.776-3.06,6.836-6.835,6.836H46.836c-3.775,0-6.836-3.06-6.836-6.836V6.768
			c0-3.775,3.061-6.835,6.836-6.835h26.329C76.94-0.067,80,2.993,80,6.768V33.097z"/>
	</g>
	<g>
		<path fill="#FFFFFF" d="M60,3.155c-8.975,0-16.25,6.876-16.25,15.359c0,4.865,2.4,9.193,6.134,12.007l-0.26,6.191l5.103-3.683
			c1.656,0.537,3.425,0.843,5.274,0.843c8.975,0,16.25-6.876,16.25-15.359S68.975,3.155,60,3.155z"/>
		<polygon fill="#20B2E3" points="49.623,23.495 58.434,14.098 62.349,18.797 70.376,14.098 61.566,23.495 57.259,18.797 		"/>
	</g>
</g>
<path fill="#FFFFFF" d="M20,3.155c-8.975,0-16.25,6.876-16.25,15.359c0,4.865,2.4,9.193,6.134,12.007l-0.26,6.191l5.103-3.683
	c1.656,0.537,3.425,0.843,5.274,0.843c8.975,0,16.25-6.876,16.25-15.359C36.25,10.031,28.975,3.155,20,3.155z M21.566,23.495
	l-4.307-4.699l-7.636,4.699l8.81-9.398l3.916,4.699l8.027-4.699L21.566,23.495z"/>
<g opacity="0.3" enable-background="new    ">
	<path fill="#9A999E" d="M35-37.403c0,3.776-3.06,6.836-6.835,6.836H1.836c-3.775,0-6.836-3.06-6.836-6.836v-26.329
		c0-3.775,3.061-6.835,6.836-6.835h26.329c3.775,0,6.835,3.06,6.835,6.835V-37.403z"/>
</g>
<path fill="#FFFFFF" d="M15-67.345c-8.975,0-16.25,6.876-16.25,15.359c0,4.865,2.4,9.193,6.134,12.007l-0.26,6.191l5.103-3.683
	c1.656,0.537,3.425,0.843,5.274,0.843c8.975,0,16.25-6.876,16.25-15.359S23.975-67.345,15-67.345z"/>
<polygon fill="#9A999E" points="4.623,-47.005 13.434,-56.402 17.349,-51.703 25.376,-56.402 16.566,-47.005 12.259,-51.703 "/>
<path fill="#333333" d="M20,3.222c-8.975,0-16.25,6.876-16.25,15.359c0,4.865,2.4,9.193,6.134,12.007l-0.26,6.191l5.103-3.683
	c1.656,0.537,3.425,0.843,5.274,0.843c8.975,0,16.25-6.876,16.25-15.359C36.25,10.098,28.975,3.222,20,3.222z M21.566,23.562
	l-4.307-4.699l-7.636,4.699l8.81-9.398l3.916,4.699l8.027-4.699L21.566,23.562z"/>
</svg>
