<?xml version="1.0" encoding="utf-8"?>
<!-- Generator: Adobe Illustrator 17.0.0, SVG Export Plug-In . SVG Version: 6.00 Build 0)  -->
<!DOCTYPE svg PUBLIC "-//W3C//DTD SVG 1.1//EN" "http://www.w3.org/Graphics/SVG/1.1/DTD/svg11.dtd">
<svg version="1.1" id="Capa_1" xmlns="http://www.w3.org/2000/svg" xmlns:xlink="http://www.w3.org/1999/xlink" x="0px" y="0px"
	 width="80px" height="40px" viewBox="0 0 80 40" enable-background="new 0 0 80 40" xml:space="preserve">
<g>
	
		<radialGradient id="SVGID_1_" cx="-406.2874" cy="-1552.2191" r="81.318" fx="-431.3703" fy="-1555.8627" gradientTransform="matrix(0.6534 -0.757 -0.6147 -0.5306 -641.8447 -1099.8375)" gradientUnits="userSpaceOnUse">
		<stop  offset="0" style="stop-color:#EEE340"/>
		<stop  offset="0.0536" style="stop-color:#EAD850"/>
		<stop  offset="0.1636" style="stop-color:#DFB867"/>
		<stop  offset="0.3185" style="stop-color:#D08077"/>
		<stop  offset="0.4486" style="stop-color:#C03974"/>
		<stop  offset="0.592" style="stop-color:#9E4481"/>
		<stop  offset="0.7358" style="stop-color:#794A8A"/>
		<stop  offset="0.8568" style="stop-color:#5C4B90"/>
		<stop  offset="0.9484" style="stop-color:#444A93"/>
		<stop  offset="1" style="stop-color:#384993"/>
	</radialGradient>
	<path fill="url(#SVGID_1_)" d="M80,33.164C80,36.94,76.94,40,73.165,40H46.836C43.06,40,40,36.94,40,33.164V6.836
		C40,3.06,43.06,0,46.836,0h26.329C76.94,0,80,3.06,80,6.836V33.164z"/>
	<g>
		<g>
			<path fill="#FFFFFF" d="M66.37,35.866H53.631c-5.653,0-10.253-4.599-10.253-10.253V14.387c0-5.654,4.6-10.253,10.253-10.253
				H66.37c5.653,0,10.253,4.599,10.253,10.253v11.226C76.623,31.267,72.023,35.866,66.37,35.866z M53.631,6.413
				c-4.397,0-7.975,3.578-7.975,7.974v11.226c0,4.397,3.577,7.975,7.975,7.975H66.37c4.397,0,7.974-3.578,7.974-7.975V14.387
				c0-4.397-3.577-7.974-7.974-7.974H53.631z"/>
		</g>
		<g>
			<path fill="#FFFFFF" d="M60,29.127c-5.033,0-9.127-4.094-9.127-9.127s4.094-9.127,9.127-9.127s9.127,4.094,9.127,9.127
				S65.033,29.127,60,29.127z M60,13.152c-3.776,0-6.849,3.072-6.849,6.848s3.072,6.849,6.849,6.849
				c3.776,0,6.848-3.072,6.848-6.849C66.848,16.224,63.776,13.152,60,13.152z"/>
		</g>
		<g>
			<circle fill="#FFFFFF" cx="68.987" cy="11.154" r="1.894"/>
		</g>
	</g>
</g>
<g>
	<g>
		<g>
			<path fill="#333333" d="M26.369,35.867H13.63c-5.653,0-10.253-4.6-10.253-10.254V14.387c0-5.654,4.6-10.253,10.253-10.253h12.739
				c5.653,0,10.253,4.599,10.253,10.253v11.225C36.622,31.267,32.022,35.867,26.369,35.867z M13.63,6.413
				c-4.397,0-7.975,3.577-7.975,7.975v11.225c0,4.398,3.577,7.975,7.975,7.975h12.739c4.397,0,7.974-3.577,7.974-7.975V14.387
				c0-4.397-3.577-7.975-7.974-7.975L13.63,6.413L13.63,6.413z"/>
		</g>
		<g>
			<path fill="#333333" d="M20,29.127c-5.033,0-9.127-4.094-9.127-9.127s4.094-9.127,9.127-9.127s9.127,4.094,9.127,9.127
				C29.127,25.033,25.033,29.127,20,29.127z M20,13.152c-3.776,0-6.849,3.072-6.849,6.849c0,3.776,3.072,6.848,6.849,6.848
				c3.776,0,6.848-3.072,6.848-6.848C26.848,16.224,23.776,13.152,20,13.152z"/>
		</g>
		<g>
			<circle fill="#333333" cx="28.987" cy="11.154" r="1.894"/>
		</g>
	</g>
</g>
</svg>
