<?xml version="1.0" encoding="utf-8"?>
<!-- Generator: Adobe Illustrator 17.0.0, SVG Export Plug-In . SVG Version: 6.00 Build 0)  -->
<!DOCTYPE svg PUBLIC "-//W3C//DTD SVG 1.1//EN" "http://www.w3.org/Graphics/SVG/1.1/DTD/svg11.dtd">
<svg version="1.1" id="Capa_1" xmlns="http://www.w3.org/2000/svg" xmlns:xlink="http://www.w3.org/1999/xlink" x="0px" y="0px"
	 width="80px" height="40px" viewBox="0 0 80 40" enable-background="new 0 0 80 40" xml:space="preserve">
<g>
	<g>
		<path fill="#429A45" d="M80,33.164C80,36.94,76.94,40,73.165,40H46.836C43.061,40,40,36.94,40,33.164V6.835
			C40,3.06,43.061,0,46.836,0h26.329C76.94,0,80,3.06,80,6.835V33.164z"/>
	</g>
	<g>
		<g>
			<path fill="#FFFFFF" d="M60,35.316c-2.681,0-5.31-0.71-7.639-2.056l-5.967,2.056l1.226-6.319
				c-1.923-2.635-2.936-5.733-2.936-8.996c0-8.445,6.87-15.315,15.316-15.315s15.316,6.87,15.316,15.315
				C75.316,28.445,68.446,35.316,60,35.316z M52.636,30.754l0.461,0.289c2.08,1.304,4.467,1.993,6.902,1.993
				c7.189,0,13.037-5.848,13.037-13.037c0-7.188-5.848-13.036-13.037-13.036s-13.037,5.848-13.037,13.036
				c0,2.925,0.958,5.696,2.769,8.014l0.32,0.409l-0.67,3.453L52.636,30.754z"/>
		</g>
		<path fill="#FFFFFF" d="M52.268,14.116c0,0,0.898-1.571,1.631-1.661s1.676-0.09,1.93,0.389s1.391,3.262,1.391,3.262
			s0.194,0.479-0.105,0.942c-0.299,0.464-0.972,1.137-0.972,1.137s-0.374,0.479,0,0.987c0.374,0.509,0.954,1.444,2.155,2.643
			c1.198,1.199,3.5,2.055,3.5,2.055s0.329,0.045,0.539-0.165c0.209-0.209,1.347-1.63,1.347-1.63s0.366-0.471,0.973-0.194
			c0.605,0.277,3.231,1.586,3.231,1.586s0.307,0.112,0.307,0.576s-0.188,1.599-0.571,1.982c-0.384,0.384-1.506,1.566-3.191,1.566
			c-1.686,0-5.701-1.372-7.84-3.511c-2.139-2.14-4.039-4.309-4.488-6.284C51.655,15.821,51.715,14.929,52.268,14.116z"/>
	</g>
</g>
<g>
	<g>
		<g>
			<path fill="#333333" d="M20,35.315c-2.681,0-5.31-0.709-7.639-2.056l-5.967,2.056l1.226-6.319
				C5.698,26.362,4.684,23.262,4.684,20c0-8.445,6.87-15.315,15.316-15.315S35.316,11.556,35.316,20
				C35.316,28.445,28.446,35.315,20,35.315z M12.636,30.754l0.461,0.289c2.08,1.304,4.467,1.993,6.902,1.993
				c7.189,0,13.037-5.848,13.037-13.037S27.188,6.962,19.999,6.962C12.811,6.963,6.963,12.811,6.963,20
				c0,2.925,0.958,5.696,2.769,8.013l0.32,0.409l-0.67,3.453L12.636,30.754z"/>
		</g>
		<path fill="#333333" d="M12.268,14.116c0,0,0.898-1.571,1.631-1.661c0.733-0.09,1.676-0.09,1.93,0.389
			c0.254,0.478,1.391,3.262,1.391,3.262s0.194,0.479-0.105,0.943s-0.972,1.137-0.972,1.137s-0.374,0.479,0,0.988
			c0.374,0.509,0.954,1.444,2.155,2.643c1.198,1.2,3.5,2.055,3.5,2.055s0.329,0.045,0.539-0.164c0.209-0.21,1.347-1.631,1.347-1.631
			s0.366-0.471,0.973-0.194c0.605,0.277,3.231,1.585,3.231,1.585s0.307,0.113,0.307,0.576c0,0.464-0.188,1.599-0.571,1.982
			c-0.384,0.384-1.506,1.566-3.191,1.566c-1.686,0-5.701-1.371-7.84-3.511s-4.039-4.309-4.488-6.284
			C11.655,15.821,11.715,14.929,12.268,14.116z"/>
	</g>
</g>
</svg>
